<mxfile host="app.diagrams.net" modified="2022-12-07T14:37:23.943Z" agent="5.0 (Macintosh; Intel Mac OS X 10_15_7) AppleWebKit/537.36 (KHTML, like Gecko) Chrome/108.0.0.0 Safari/537.36" version="20.6.0" etag="Wg4EPXzHiVb_0aoVAH7q" type="github">
  <diagram id="XNX0xC5tmDuH5LZrmgkU" name="Page-1">
    <mxGraphModel dx="1226" dy="740" grid="1" gridSize="10" guides="1" tooltips="1" connect="1" arrows="1" fold="1" page="1" pageScale="1" pageWidth="1169" pageHeight="827" math="0" shadow="0">
      <root>
        <mxCell id="0" />
        <mxCell id="1" parent="0" />
        <mxCell id="TqTFIipWgSYAfND20fHR-1" value="" style="sketch=0;points=[[0,0,0],[0.25,0,0],[0.5,0,0],[0.75,0,0],[1,0,0],[0,1,0],[0.25,1,0],[0.5,1,0],[0.75,1,0],[1,1,0],[0,0.25,0],[0,0.5,0],[0,0.75,0],[1,0.25,0],[1,0.5,0],[1,0.75,0]];outlineConnect=0;fontColor=#232F3E;gradientColor=#60A337;gradientDirection=north;fillColor=#277116;strokeColor=#ffffff;dashed=0;verticalLabelPosition=bottom;verticalAlign=top;align=center;html=1;fontSize=12;fontStyle=0;aspect=fixed;shape=mxgraph.aws4.resourceIcon;resIcon=mxgraph.aws4.s3;" vertex="1" parent="1">
          <mxGeometry x="160" y="320" width="80" height="80" as="geometry" />
        </mxCell>
        <mxCell id="TqTFIipWgSYAfND20fHR-28" value="" style="sketch=0;points=[[0,0,0],[0.25,0,0],[0.5,0,0],[0.75,0,0],[1,0,0],[0,1,0],[0.25,1,0],[0.5,1,0],[0.75,1,0],[1,1,0],[0,0.25,0],[0,0.5,0],[0,0.75,0],[1,0.25,0],[1,0.5,0],[1,0.75,0]];outlineConnect=0;fontColor=#232F3E;gradientColor=#F78E04;gradientDirection=north;fillColor=#D05C17;strokeColor=#ffffff;dashed=0;verticalLabelPosition=bottom;verticalAlign=top;align=center;html=1;fontSize=12;fontStyle=0;aspect=fixed;shape=mxgraph.aws4.resourceIcon;resIcon=mxgraph.aws4.lambda;" vertex="1" parent="1">
          <mxGeometry x="330" y="320" width="78" height="78" as="geometry" />
        </mxCell>
        <mxCell id="TqTFIipWgSYAfND20fHR-30" value="" style="sketch=0;points=[[0,0,0],[0.25,0,0],[0.5,0,0],[0.75,0,0],[1,0,0],[0,1,0],[0.25,1,0],[0.5,1,0],[0.75,1,0],[1,1,0],[0,0.25,0],[0,0.5,0],[0,0.75,0],[1,0.25,0],[1,0.5,0],[1,0.75,0]];points=[[0,0,0],[0.25,0,0],[0.5,0,0],[0.75,0,0],[1,0,0],[0,1,0],[0.25,1,0],[0.5,1,0],[0.75,1,0],[1,1,0],[0,0.25,0],[0,0.5,0],[0,0.75,0],[1,0.25,0],[1,0.5,0],[1,0.75,0]];outlineConnect=0;fontColor=#232F3E;gradientColor=#F34482;gradientDirection=north;fillColor=#BC1356;strokeColor=#ffffff;dashed=0;verticalLabelPosition=bottom;verticalAlign=top;align=center;html=1;fontSize=12;fontStyle=0;aspect=fixed;shape=mxgraph.aws4.resourceIcon;resIcon=mxgraph.aws4.cloudwatch_2;" vertex="1" parent="1">
          <mxGeometry x="330" y="150" width="78" height="78" as="geometry" />
        </mxCell>
        <mxCell id="TqTFIipWgSYAfND20fHR-32" value="" style="edgeStyle=orthogonalEdgeStyle;html=1;endArrow=openThin;elbow=vertical;startArrow=none;endFill=0;strokeColor=#545B64;rounded=0;entryX=0;entryY=0.5;entryDx=0;entryDy=0;entryPerimeter=0;" edge="1" parent="1" target="TqTFIipWgSYAfND20fHR-28">
          <mxGeometry width="100" relative="1" as="geometry">
            <mxPoint x="240" y="359.5" as="sourcePoint" />
            <mxPoint x="340" y="359.5" as="targetPoint" />
          </mxGeometry>
        </mxCell>
        <mxCell id="TqTFIipWgSYAfND20fHR-34" value="" style="edgeStyle=orthogonalEdgeStyle;html=1;endArrow=openThin;elbow=vertical;startArrow=none;endFill=0;strokeColor=#545B64;rounded=0;exitX=0.5;exitY=0;exitDx=0;exitDy=0;exitPerimeter=0;entryX=0.5;entryY=1;entryDx=0;entryDy=0;entryPerimeter=0;" edge="1" parent="1" source="TqTFIipWgSYAfND20fHR-28" target="TqTFIipWgSYAfND20fHR-30">
          <mxGeometry width="100" relative="1" as="geometry">
            <mxPoint x="420" y="269.5" as="sourcePoint" />
            <mxPoint x="430" y="270" as="targetPoint" />
          </mxGeometry>
        </mxCell>
        <mxCell id="TqTFIipWgSYAfND20fHR-35" value="" style="edgeStyle=orthogonalEdgeStyle;html=1;endArrow=openThin;elbow=vertical;startArrow=none;endFill=0;strokeColor=#545B64;rounded=0;exitX=1;exitY=0.5;exitDx=0;exitDy=0;exitPerimeter=0;entryX=0;entryY=0.5;entryDx=0;entryDy=0;entryPerimeter=0;" edge="1" parent="1" source="TqTFIipWgSYAfND20fHR-28" target="TqTFIipWgSYAfND20fHR-36">
          <mxGeometry width="100" relative="1" as="geometry">
            <mxPoint x="530" y="300" as="sourcePoint" />
            <mxPoint x="520" y="360" as="targetPoint" />
          </mxGeometry>
        </mxCell>
        <mxCell id="TqTFIipWgSYAfND20fHR-36" value="" style="sketch=0;points=[[0,0,0],[0.25,0,0],[0.5,0,0],[0.75,0,0],[1,0,0],[0,1,0],[0.25,1,0],[0.5,1,0],[0.75,1,0],[1,1,0],[0,0.25,0],[0,0.5,0],[0,0.75,0],[1,0.25,0],[1,0.5,0],[1,0.75,0]];outlineConnect=0;fontColor=#232F3E;gradientColor=#4D72F3;gradientDirection=north;fillColor=#3334B9;strokeColor=#ffffff;dashed=0;verticalLabelPosition=bottom;verticalAlign=top;align=center;html=1;fontSize=12;fontStyle=0;aspect=fixed;shape=mxgraph.aws4.resourceIcon;resIcon=mxgraph.aws4.simple_email_service;" vertex="1" parent="1">
          <mxGeometry x="500" y="320" width="78" height="78" as="geometry" />
        </mxCell>
        <mxCell id="TqTFIipWgSYAfND20fHR-38" value="" style="sketch=0;points=[[0,0,0],[0.25,0,0],[0.5,0,0],[0.75,0,0],[1,0,0],[0,1,0],[0.25,1,0],[0.5,1,0],[0.75,1,0],[1,1,0],[0,0.25,0],[0,0.5,0],[0,0.75,0],[1,0.25,0],[1,0.5,0],[1,0.75,0]];outlineConnect=0;fontColor=#232F3E;gradientColor=#FF4F8B;gradientDirection=north;fillColor=#BC1356;strokeColor=#ffffff;dashed=0;verticalLabelPosition=bottom;verticalAlign=top;align=center;html=1;fontSize=12;fontStyle=0;aspect=fixed;shape=mxgraph.aws4.resourceIcon;resIcon=mxgraph.aws4.sns;" vertex="1" parent="1">
          <mxGeometry x="500" y="150" width="78" height="78" as="geometry" />
        </mxCell>
        <mxCell id="TqTFIipWgSYAfND20fHR-39" value="" style="edgeStyle=orthogonalEdgeStyle;html=1;endArrow=openThin;elbow=vertical;startArrow=none;endFill=0;strokeColor=#545B64;rounded=0;exitX=0.5;exitY=0;exitDx=0;exitDy=0;exitPerimeter=0;entryX=0.5;entryY=1;entryDx=0;entryDy=0;entryPerimeter=0;" edge="1" parent="1">
          <mxGeometry width="100" relative="1" as="geometry">
            <mxPoint x="538.5" y="320" as="sourcePoint" />
            <mxPoint x="538.5" y="228" as="targetPoint" />
          </mxGeometry>
        </mxCell>
        <mxCell id="TqTFIipWgSYAfND20fHR-40" value="" style="sketch=0;outlineConnect=0;fontColor=#232F3E;gradientColor=none;fillColor=#232F3D;strokeColor=none;dashed=0;verticalLabelPosition=bottom;verticalAlign=top;align=center;html=1;fontSize=12;fontStyle=0;aspect=fixed;pointerEvents=1;shape=mxgraph.aws4.user;" vertex="1" parent="1">
          <mxGeometry x="670" y="150" width="78" height="78" as="geometry" />
        </mxCell>
        <mxCell id="TqTFIipWgSYAfND20fHR-41" value="" style="edgeStyle=orthogonalEdgeStyle;html=1;endArrow=openThin;elbow=vertical;startArrow=none;endFill=0;strokeColor=#545B64;rounded=0;exitX=1;exitY=0.5;exitDx=0;exitDy=0;exitPerimeter=0;entryX=0;entryY=0.5;entryDx=0;entryDy=0;entryPerimeter=0;" edge="1" parent="1">
          <mxGeometry width="100" relative="1" as="geometry">
            <mxPoint x="578" y="358.5" as="sourcePoint" />
            <mxPoint x="670" y="358.5" as="targetPoint" />
          </mxGeometry>
        </mxCell>
        <mxCell id="TqTFIipWgSYAfND20fHR-42" value="" style="edgeStyle=orthogonalEdgeStyle;html=1;endArrow=openThin;elbow=vertical;startArrow=none;endFill=0;strokeColor=#545B64;rounded=0;exitX=1;exitY=0.5;exitDx=0;exitDy=0;exitPerimeter=0;entryX=0;entryY=0.5;entryDx=0;entryDy=0;entryPerimeter=0;" edge="1" parent="1">
          <mxGeometry width="100" relative="1" as="geometry">
            <mxPoint x="578" y="188.5" as="sourcePoint" />
            <mxPoint x="670" y="188.5" as="targetPoint" />
          </mxGeometry>
        </mxCell>
        <mxCell id="TqTFIipWgSYAfND20fHR-43" value="" style="sketch=0;outlineConnect=0;fontColor=#232F3E;gradientColor=none;fillColor=#232F3D;strokeColor=none;dashed=0;verticalLabelPosition=bottom;verticalAlign=top;align=center;html=1;fontSize=12;fontStyle=0;aspect=fixed;pointerEvents=1;shape=mxgraph.aws4.users;" vertex="1" parent="1">
          <mxGeometry x="680" y="322" width="78" height="78" as="geometry" />
        </mxCell>
        <mxCell id="TqTFIipWgSYAfND20fHR-45" value="S3 Bucket" style="text;html=1;strokeColor=none;fillColor=none;align=center;verticalAlign=middle;whiteSpace=wrap;rounded=0;" vertex="1" parent="1">
          <mxGeometry x="170" y="400" width="60" height="30" as="geometry" />
        </mxCell>
        <mxCell id="TqTFIipWgSYAfND20fHR-46" value="Lambda" style="text;html=1;strokeColor=none;fillColor=none;align=center;verticalAlign=middle;whiteSpace=wrap;rounded=0;" vertex="1" parent="1">
          <mxGeometry x="339" y="399" width="60" height="30" as="geometry" />
        </mxCell>
        <mxCell id="TqTFIipWgSYAfND20fHR-47" value="SES" style="text;html=1;strokeColor=none;fillColor=none;align=center;verticalAlign=middle;whiteSpace=wrap;rounded=0;" vertex="1" parent="1">
          <mxGeometry x="509" y="398" width="60" height="30" as="geometry" />
        </mxCell>
        <mxCell id="TqTFIipWgSYAfND20fHR-48" value="CloudWatch" style="text;html=1;strokeColor=none;fillColor=none;align=center;verticalAlign=middle;whiteSpace=wrap;rounded=0;" vertex="1" parent="1">
          <mxGeometry x="339" y="120" width="60" height="30" as="geometry" />
        </mxCell>
        <mxCell id="TqTFIipWgSYAfND20fHR-49" value="SNS" style="text;html=1;strokeColor=none;fillColor=none;align=center;verticalAlign=middle;whiteSpace=wrap;rounded=0;" vertex="1" parent="1">
          <mxGeometry x="509" y="120" width="60" height="30" as="geometry" />
        </mxCell>
        <mxCell id="TqTFIipWgSYAfND20fHR-50" value="GDA Team" style="text;html=1;strokeColor=none;fillColor=none;align=center;verticalAlign=middle;whiteSpace=wrap;rounded=0;" vertex="1" parent="1">
          <mxGeometry x="679" y="120" width="60" height="30" as="geometry" />
        </mxCell>
        <mxCell id="TqTFIipWgSYAfND20fHR-51" value="Distribution List" style="text;html=1;strokeColor=none;fillColor=none;align=center;verticalAlign=middle;whiteSpace=wrap;rounded=0;" vertex="1" parent="1">
          <mxGeometry x="670" y="292" width="92" height="30" as="geometry" />
        </mxCell>
      </root>
    </mxGraphModel>
  </diagram>
</mxfile>
